<?xml version="1.0" encoding="utf-8"?>
<svg width="45px" height="46px" viewBox="0 0 45 46" version="1.1" xmlns:xlink="http://www.w3.org/1999/xlink" xmlns="http://www.w3.org/2000/svg">
  <desc>Created with Lunacy</desc>
  <g id="icons8_plus">
    <path d="M0 0L21 0L21 21L0 21L0 0Z" transform="translate(2.25 0)" id="Background" fill="none" stroke="none" />
    <path d="M22.3489 0C17.0901 0.0988289 13.7623 1.87774 12.3304 4.62665C10.9687 7.24378 11.2533 10.5417 12.2253 13.9678C11.7043 14.4802 11.2752 15.2013 11.3846 16.2811L11.3846 16.3397C11.5729 17.4817 11.9845 18.287 12.5056 18.858C12.7552 19.1288 13.1098 19.1435 13.4163 19.2972C13.6878 20.5747 14.2965 21.7936 14.9927 22.7526C15.0277 22.8917 15.0978 23.0198 15.2029 23.1332C15.2029 23.1332 15.3167 23.254 15.343 23.2796C15.6933 23.7189 15.8684 24.3302 15.8684 25.0073C15.8684 25.7284 15.8553 26.3982 15.7633 27.1449C15.4262 27.8551 14.5855 28.4224 13.2412 28.9898C11.8356 29.5827 9.99658 30.1281 8.12687 30.8053C6.25717 31.4824 4.36119 32.295 2.8374 33.5871C1.31361 34.8792 0.223314 36.6691 0.0700593 39.0044L0 40L44.978 40L44.908 39.0044C44.7547 36.6691 43.6907 34.8829 42.1757 33.5871C40.6606 32.2914 38.7559 31.4824 36.8862 30.8053C35.0165 30.1281 33.1643 29.5864 31.7368 28.9898C30.3532 28.4114 29.4862 27.8221 29.1096 27.0864C29.022 26.2006 29.0045 25.5015 29.0045 24.7145C29.0045 24.213 29.2103 23.7592 29.565 23.3089C29.5738 23.298 29.5913 23.2906 29.6 23.2796C29.6044 23.2723 29.6701 23.2211 29.6701 23.2211C29.8102 23.1003 29.9065 22.9466 29.9503 22.7818C30.629 21.8082 31.1939 20.571 31.4566 19.3265C31.8069 19.1728 32.201 19.1545 32.4725 18.858C33.011 18.2687 33.3263 17.4305 33.4533 16.2811C33.554 15.2892 33.2125 14.5681 32.6826 14.0264C33.265 12.5256 33.9568 10.1245 33.7335 7.67204C33.6109 6.32504 33.1862 4.9817 32.2273 3.8653C31.3603 2.85505 29.9591 2.16325 28.1989 1.8448C27.0122 0.519766 24.8579 0 22.3839 0L22.3489 0ZM22.4187 1.87408L22.3837 1.87408C17.6941 1.96925 15.4872 3.29429 14.3969 5.38799C13.3066 7.48902 13.4686 10.582 14.502 13.9971L14.6772 14.6413L14.0466 15.022C14.064 15.0118 14.0572 15.0192 14.0353 15.0432C13.947 15.1401 13.6122 15.507 13.6263 16.0761C13.6285 16.0835 13.6274 16.0871 13.6263 16.0908C13.6252 16.0944 13.6241 16.0981 13.6263 16.1054L13.6263 16.1347C13.7795 16.9949 14.0598 17.5 14.2568 17.716C14.3575 17.8294 14.4626 17.877 14.502 17.8917L15.4128 17.8917L15.5179 18.7116C15.7105 19.9121 16.468 21.3104 17.1292 22.1083C17.1314 22.112 17.1303 22.1175 17.1292 22.123C17.1281 22.1285 17.127 22.134 17.1292 22.1376C17.2869 22.2987 17.843 22.8734 18.7756 23.5432C19.8528 24.3155 21.254 25.0073 22.4888 25.0073C23.7323 25.0073 25.1204 24.3485 26.1669 23.6018C26.7974 23.1515 27.2397 22.7745 27.533 22.489C27.5943 22.4012 27.6425 22.306 27.7082 22.2255L27.7432 22.2255C28.3869 21.4568 29.1269 19.9268 29.3195 18.7116L29.4597 17.8917L30.4405 17.8917C30.4011 17.8917 30.4974 17.9209 30.6857 17.716C30.8696 17.5146 31.1411 17.0168 31.2462 16.1347L31.2462 16.1054C31.282 15.5427 31.0425 15.232 30.9588 15.1235C30.9402 15.0993 30.9293 15.0852 30.9309 15.0805L30.0552 14.6999L30.4055 13.9092C30.9178 12.7086 31.6972 10.0695 31.4914 7.81845C31.3907 6.69473 31.0316 5.67716 30.4055 4.94876C29.7793 4.22035 28.9342 3.72255 27.3929 3.54319L26.8324 3.48463L26.5522 3.07467C26.0881 2.40849 24.6562 1.88141 22.4187 1.87408ZM18.1099 25.5051C19.2921 26.2335 20.7721 26.8814 22.4886 26.8814C24.17 26.8814 25.6106 26.2665 26.7622 25.5637C26.7666 26.1347 26.7885 26.7204 26.8673 27.4378L26.8673 27.5549L26.9373 27.672C27.1344 28.104 27.4146 28.47 27.743 28.8141C27.7299 28.8507 27.7167 28.8909 27.708 28.9312C27.708 28.9312 27.4409 29.5461 26.6571 30.2196C25.8733 30.8931 24.656 31.5666 22.4886 31.5666C20.3299 31.5666 19.0688 30.8638 18.25 30.1611C17.4312 29.4583 17.1641 28.8141 17.1641 28.8141C17.4881 28.4627 17.7552 28.0857 17.9347 27.6428L18.0048 27.4671C18.1011 26.757 18.1099 26.1164 18.1099 25.5051ZM30.7206 30.6881C30.2959 30.5124 29.8886 30.3148 29.4946 30.1025C29.2537 30.4905 28.8815 30.981 28.2685 31.508C27.1476 32.4744 25.2516 33.4407 22.4886 33.4407C19.7169 33.4407 17.7815 32.4634 16.6387 31.4788C16.0826 30.9993 15.6973 30.5088 15.4477 30.1318C15.0711 30.3367 14.6595 30.5161 14.2567 30.6881C12.6365 31.3726 10.7975 31.896 9.03725 32.5329C7.27701 33.1698 5.60435 33.8909 4.41334 34.9048C3.46316 35.7138 2.89831 36.7899 2.5918 38.1259L42.3855 38.1259C42.079 36.7899 41.5097 35.7138 40.5639 34.9048C39.3773 33.8909 37.7353 33.1698 35.975 32.5329C34.2148 31.896 32.3582 31.3689 30.7206 30.6881Z" transform="translate(0 5.75)" id="Shape-2" fill="#5A3782" fill-rule="evenodd" stroke="none" />
    <g id="Plus-icon" transform="translate(27 2.75)">
      <path d="M0 0L16 0L16 16L0 16L0 0Z" id="Background" fill="none" stroke="none" />
      <path d="M0 6.5C0 2.91797 2.91797 0 6.5 0C10.082 0 13 2.91797 13 6.5C13 10.082 10.082 13 6.5 13C2.91797 13 0 10.082 0 6.5ZM6.5 1C9.54297 1 12 3.45703 12 6.5C12 9.54297 9.54297 12 6.5 12C3.45703 12 1 9.54297 1 6.5C1 3.45703 3.45703 1 6.5 1ZM6 6L6 3L7 3L7 6L10 6L10 7L7 7L7 10L6 10L6 7L3 7L3 6L6 6Z" transform="translate(1 1)" id="Shape" fill="#5A3782" fill-rule="evenodd" stroke="none" />
    </g>
  </g>
</svg>