<?xml version="1.0" encoding="utf-8"?>
<svg width="42px" height="42px" viewBox="0 0 42 42" version="1.1" xmlns:xlink="http://www.w3.org/1999/xlink" xmlns="http://www.w3.org/2000/svg">
  <desc>Created with Lunacy</desc>
  <g id="About-icon" transform="translate(1 1)">
    <path d="M19.5948 0C8.79011 0 0 8.27452 0 18.4408C0 23.3536 2.01765 27.9484 5.69168 31.4302C5.01198 33.5556 3.26988 35.0191 1.97479 36.1061L1.97162 36.1088C0.785319 37.1036 -0.0732511 37.8236 0.183701 38.8416L0.266367 39.1758L0.548042 39.3478C1.26142 39.7793 2.21054 40 3.37704 40C7.2562 40 12.8315 37.6409 15.287 36.5052C16.6831 36.8135 18.0701 36.966 19.5152 36.966C30.323 36.966 39.11 28.6915 39.11 18.5252C39.11 8.31021 30.3566 0 19.5948 0ZM31.2491 17.4445C31.4849 17.4445 31.5645 17.279 31.5645 17.1135L31.5645 14.9524C31.5645 14.7025 31.4084 14.6214 31.2491 14.6214L29.3693 14.6214C29.1335 14.6214 29.057 14.7869 29.057 14.9524L29.057 17.1135C29.057 17.3633 29.2131 17.4445 29.3693 17.4445L31.2491 17.4445ZM21.5347 17.8479C21.7705 17.8479 21.8501 17.6824 21.8501 17.5169L21.8501 15.3558C21.8501 15.1059 21.6939 15.0248 21.5347 15.0248L19.6549 15.0248C19.4191 15.0248 19.3426 15.1903 19.3426 15.3558L19.3426 17.5169C19.3426 17.7667 19.4987 17.8479 19.6549 17.8479L21.5347 17.8479ZM12.5258 18.1579C12.5258 18.3234 12.4462 18.4889 12.2104 18.4889L10.3306 18.4889C10.1744 18.4889 10.0183 18.4077 10.0183 18.1579L10.0183 15.9968C10.0183 15.8313 10.0948 15.6658 10.3306 15.6658L12.2104 15.6658C12.3697 15.6658 12.5258 15.7469 12.5258 15.9968L12.5258 18.1579Z" transform="matrix(-1 0 0 1 39.11 0)" id="Shape" fill="#66339900" fill-rule="evenodd" stroke="#000000" stroke-width="2" />
  </g>
</svg>