<?xml version="1.0" encoding="utf-8"?>
<svg width="50px" height="50px" viewBox="0 0 50 50" version="1.1" xmlns:xlink="http://www.w3.org/1999/xlink" xmlns="http://www.w3.org/2000/svg">
  <desc>Created with Lunacy</desc>
  <g id="icons8_plus_10">
    <path d="M0 25C0 11.223 11.223 0 25 0C38.777 0 50 11.223 50 25C50 38.777 38.777 50 25 50C11.223 50 0 38.777 0 25ZM25 3.84616C36.7038 3.84616 46.1539 13.2963 46.1539 25C46.1539 36.7037 36.7038 46.1538 25 46.1538C13.2963 46.1538 3.84619 36.7037 3.84619 25C3.84619 13.2963 13.2963 3.84616 25 3.84616ZM23.077 23.0769L23.077 11.5385L26.9232 11.5385L26.9232 23.0769L38.4617 23.0769L38.4617 26.9231L26.9232 26.9231L26.9232 38.4615L23.077 38.4615L23.077 26.9231L11.5386 26.9231L11.5386 23.0769L23.077 23.0769Z" id="Shape" fill="#5A3782" fill-rule="evenodd" stroke="none" />
  </g>
</svg>