<svg id="Capa_1" enable-background="new 0 0 511.999 511.999" height="512" viewBox="0 0 511.999 511.999" width="512" xmlns="http://www.w3.org/2000/svg"><g><g><g><path d="m419.77 228.539c-5.162-7.808-7.887-16.887-7.881-26.261v-.174c0-6.581-.427-13.207-1.27-19.694-.721-5.546-4.404-10.241-9.613-12.252-5.213-2.012-11.097-1.011-15.361 2.616-2.83 2.406-5.765 4.701-8.788 6.874 1.078-18.487-.547-36.798-4.863-54.618-.975-4.025-5.03-6.499-9.055-5.523-4.025.975-6.499 5.028-5.523 9.055 5.085 20.997 6.104 42.754 3.029 64.667-.396 2.825.845 5.631 3.202 7.238 2.358 1.608 5.423 1.739 7.908.337 8.428-4.75 16.438-10.336 23.807-16.603.083-.072.114-.099.242-.05.122.047.127.084.141.191.76 5.849 1.145 11.824 1.145 17.762v.169c-.008 12.323 3.577 24.266 10.367 34.537 13.352 20.196 20.409 43.847 20.409 68.394 0 29.527-12.327 63.195-34.71 94.802-24.353 34.39-58.826 63.672-99.694 84.68-5.439 2.797-11.066 5.481-16.724 7.981-6.631 2.931-13.676 4.402-20.954 4.33-7.013-.057-14.004-1.613-20.78-4.626-5.426-2.412-10.827-4.997-16.055-7.684-40.871-21.008-75.349-50.29-99.705-84.681-22.384-31.606-34.711-65.274-34.711-94.803 0-31.096 11.353-60.663 31.968-83.254 4.86-5.326 7.532-12.316 7.523-19.766-.018-31.176 10.19-60.526 29.521-84.881.146-.182.33-.053.354.009 5.472 16.167 13.612 31.217 24.195 44.733 1.391 1.776 3.508 2.832 5.764 2.875 2.241.039 4.411-.934 5.868-2.655 5.609-6.632 12.149-13.503 19.44-20.422 47.011-44.616 37.314-89.787 32.104-114.054-.974-4.535-2.146-9.992-2.193-12.786 41.559.398 86.024 34.758 108.25 83.7 1.713 3.771 6.157 5.439 9.931 3.728 3.771-1.713 5.44-6.159 3.728-9.931-12.207-26.879-30.456-49.967-52.773-66.769-21.903-16.486-46.568-25.625-69.452-25.729-5.075-.034-8.954 1.6-11.571 4.822-4.897 6.031-3.088 14.455-.585 26.115 5.232 24.373 13.14 61.205-27.765 100.024-5.125 4.864-9.91 9.72-14.297 14.504-6.962-10.211-12.476-21.264-16.436-32.963-1.779-5.257-6.285-9.113-11.759-10.065-5.5-.957-11.08 1.166-14.552 5.54-21.459 27.036-32.792 59.615-32.771 94.307.004 3.61-1.275 7.003-3.603 9.554-23.143 25.361-35.888 58.52-35.888 93.365 0 32.606 13.307 69.354 37.47 103.473 25.744 36.35 62.083 67.246 105.088 89.351 5.478 2.816 11.137 5.524 16.818 8.051 8.667 3.854 17.668 5.845 26.753 5.919.18.001.359.002.539.002 9.227 0 18.173-1.888 26.599-5.612 5.924-2.617 11.817-5.43 17.518-8.36 43.003-22.105 79.339-53.003 105.078-89.352 24.162-34.118 37.469-70.865 37.469-103.471-.001-27.498-7.918-54.009-22.896-76.666z"/><path d="m140.58 258.518c-3.619-2.017-8.186-.72-10.203 2.898-7.375 13.229-11.274 28.371-11.274 43.788 0 26.717 14.854 60.131 39.735 89.384 1.483 1.744 3.593 2.641 5.716 2.641 1.718 0 3.445-.587 4.856-1.787 3.155-2.684 3.537-7.417.854-10.572-26.662-31.346-36.161-61.705-36.161-79.665 0-12.866 3.242-25.482 9.375-36.483 2.017-3.619.719-8.187-2.898-10.204z"/><path d="m182.112 408.242c-2.723 3.121-2.4 7.859.721 10.582 15.384 13.421 32.815 25.176 51.809 34.938 4.835 2.486 9.841 4.875 14.878 7.101 2.06.91 4.271 1.365 6.482 1.365 2.212 0 4.425-.455 6.487-1.366 5.034-2.225 10.039-4.613 14.875-7.1 45.38-23.327 72.477-53.036 87.217-73.851 17.995-25.41 28.315-52.64 28.315-74.707 0-47.487-36.409-86.121-81.163-86.121-20.847 0-40.732 8.476-55.73 23.514-14.998-15.038-34.883-23.514-55.73-23.514-16.492 0-32.373 5.225-45.926 15.108-3.347 2.44-4.082 7.132-1.641 10.479s7.132 4.082 10.479 1.641c10.97-7.999 23.795-12.228 37.088-12.228 19.131 0 37.319 8.907 49.902 24.438 1.424 1.757 3.565 2.778 5.828 2.778 2.262 0 4.404-1.021 5.828-2.778 12.583-15.531 30.771-24.438 49.902-24.438 36.482 0 66.163 31.905 66.163 71.121 0 18.754-9.554 43.441-25.557 66.038-13.772 19.449-39.15 47.238-81.833 69.18-4.577 2.352-9.314 4.613-14.079 6.719-.266.119-.584.118-.846.001-4.769-2.107-9.507-4.368-14.083-6.721-17.916-9.208-34.336-20.277-48.805-32.9-3.12-2.723-7.859-2.399-10.581.721z"/><path d="m218.099 343.107v-9.124c0-4.143-3.358-7.5-7.5-7.5s-7.5 3.357-7.5 7.5v9.124c0 4.143 3.358 7.5 7.5 7.5s7.5-3.357 7.5-7.5z"/><path d="m308.899 343.107v-9.124c0-4.143-3.357-7.5-7.5-7.5s-7.5 3.357-7.5 7.5v9.124c0 4.143 3.357 7.5 7.5 7.5s7.5-3.357 7.5-7.5z"/><path d="m256 382.086c12.354 0 22.999-8.801 25.309-20.927.775-4.069-1.895-7.996-5.963-8.771-4.068-.78-7.997 1.895-8.771 5.963-.965 5.062-5.412 8.735-10.575 8.735s-9.61-3.674-10.575-8.735c-.775-4.069-4.703-6.743-8.771-5.963-4.069.775-6.739 4.702-5.963 8.771 2.31 12.127 12.954 20.927 25.309 20.927z"/><path d="m428.071 145.8c6.893 0 12.5-5.607 12.5-12.5v-18.138c0-20.602-16.76-37.361-37.361-37.361-6.893 0-12.5 5.607-12.5 12.5v18.138c0 20.602 16.76 37.361 37.361 37.361zm-22.361-52.86c11.157 1.247 19.861 10.737 19.861 22.223v15.499c-11.157-1.247-19.861-10.737-19.861-22.223z"/><path d="m89.736 126.326c20.602 0 37.362-16.761 37.362-37.362v-18.138c0-6.893-5.607-12.5-12.5-12.5-20.602 0-37.362 16.76-37.362 37.361v18.139c0 6.892 5.607 12.5 12.5 12.5zm2.5-30.639c0-11.485 8.704-20.976 19.862-22.223v15.499c0 11.485-8.704 20.977-19.862 22.224z"/><path d="m197.431 69.175c6.892 0 12.5-5.607 12.5-12.5v-18.138c0-20.602-16.76-37.361-37.361-37.361-6.893 0-12.5 5.607-12.5 12.5v18.139c-.001 20.601 16.759 37.36 37.361 37.36zm-22.362-52.861c11.158 1.247 19.861 10.737 19.861 22.223v15.5c-11.158-1.247-19.861-10.737-19.861-22.223z"/></g></g></g></svg>