<?xml version="1.0" encoding="utf-8"?>
<svg width="40px" height="40px" viewBox="0 0 40 40" version="1.1" xmlns:xlink="http://www.w3.org/1999/xlink" xmlns="http://www.w3.org/2000/svg">
  <desc>Created with Lunacy</desc>
  <g id="icons8_home">
    <path d="M0 0L40 0L40 40L0 40L0 0Z" id="Background" fill="none" stroke="none" />
    <path d="M19.1701 0.000624847C19.0022 0.00641565 18.8404 0.0649089 18.7076 0.167812L0.308076 14.5256C-0.0403738 14.7975 -0.102521 15.3004 0.16925 15.6489C0.441021 15.9975 0.943845 16.0598 1.29247 15.7881L2.40021 14.9241L2.40021 35.9569C2.40021 36.3986 2.75831 36.7568 3.20011 36.7569L14.2655 36.7569C14.3519 36.7712 14.4401 36.7712 14.5265 36.7569L23.8653 36.7569C23.9517 36.7712 24.0398 36.7712 24.1262 36.7569L35.1994 36.7569C35.6412 36.7568 35.9993 36.3987 35.9994 35.9569L35.9994 14.9241L37.1072 15.7881C37.3327 15.9641 37.6349 16.0063 37.9 15.899C38.1651 15.7916 38.3528 15.5509 38.3923 15.2676C38.4318 14.9843 38.3172 14.7015 38.0915 14.5257L31.9995 9.7725L31.9995 3.95687L27.1996 3.95687L27.1996 6.02563L19.692 0.167812C19.5431 0.0523885 19.3583 -0.00681562 19.1701 0.000624847ZM34.3994 13.6756L19.1998 1.81468L4.00017 13.6756L4.00017 35.1569L13.5999 35.1569L13.5999 19.9569L24.7997 19.9569L24.7997 35.1569L34.3994 35.1569L34.3994 13.6756ZM28.7996 5.55687L30.3995 5.55687L30.3995 8.52406L28.7996 7.27406L28.7996 5.55687ZM23.1997 21.5569L15.1999 21.5569L15.1999 35.1569L23.1997 35.1569L23.1997 21.5569Z" transform="translate(0.7997131 0.8431091)" id="Shape" fill="#5A3782" fill-rule="evenodd" stroke="none" />
  </g>
</svg>