<?xml version="1.0" encoding="utf-8"?>
<svg width="50px" height="50px" viewBox="0 0 50 50" version="1.1" xmlns:xlink="http://www.w3.org/1999/xlink" xmlns="http://www.w3.org/2000/svg">
  <desc>Created with Lunacy</desc>
  <g id="icons8_key">
    <path d="M18 16C18 7.17578 25.1797 0 34 0C42.8203 0 50 7.17578 50 16C50 24.8203 42.8203 32 34 32C32.0391 32 30.1758 31.6172 28.4375 30.9688L24.7188 34.7188L24.4063 35L23 35L23 36.4063L22.7188 36.7188L20.7187 38.7188L20.4063 39L19 39L19 40.4062L18.7188 40.7188L15.7187 43.7188L15.4062 44L13 44L13 46.4063L12.7187 46.7188L9.71875 49.7188L9.40625 50L2.59375 50L2.28125 49.7188L0.28125 47.7188L0 47.4063L0 40.5938L0.28125 40.2813L19.0312 21.5625C18.3828 19.8242 18 17.9609 18 16ZM34 2C41.7383 2 48 8.25781 48 16C48 23.7383 41.7383 30 34 30C32.0781 30 30.2578 29.6367 28.5938 28.9375L28.5625 28.9063C23.5352 26.7813 20 21.8047 20 16C20 8.25781 26.2617 2 34 2ZM26.2188 8.21875C28.3633 6.07422 31.1836 5 34 5C36.8164 5 39.6367 6.07422 41.7813 8.21875C46.0703 12.5039 46.0703 19.4961 41.7813 23.7813L41.0625 24.5L40.375 23.7813L26.2188 9.625L25.5 8.9375L26.2188 8.21875ZM34 7C36.3008 7 38.6133 7.86328 40.375 9.625C43.6484 12.8984 43.75 17.9961 40.9375 21.5313L28.4688 9.0625C30.1016 7.76563 32.0234 7 34 7ZM26.4688 30.125C23.6719 28.6289 21.3711 26.3281 19.875 23.5313L2 41.4375L2 44.5938L17.5625 29C17.6992 28.8594 17.8711 28.7617 18.0625 28.7188C18.5156 28.582 19.0039 28.7813 19.2305 29.1992C19.457 29.6133 19.3594 30.1289 19 30.4375L2.4375 47L3.4375 48L8.5625 48L11 45.5625L11 42L14.5625 42L17 39.5625L17 37L19.5625 37L21 35.5625L21 33L23.5625 33L26.4688 30.125Z" id="Shape" fill="#5A3782" fill-rule="evenodd" stroke="none" />
  </g>
</svg>