<?xml version="1.0" encoding="utf-8"?>
<svg width="559px" height="272px" viewBox="0 0 559 272" version="1.1" xmlns:xlink="http://www.w3.org/1999/xlink" xmlns="http://www.w3.org/2000/svg">
  <desc>Created with Lunacy</desc>
  <g id="Group">
    <g id="SayHi">
      <path d="M53.5781 72.9922Q52.875 72.9922 52.875 72.4297L49.9922 56.2578Q49.9922 55.8359 49.3594 55.5547Q43.1719 52.8125 36 52.8125Q28.5469 52.8125 23.3438 56.75Q17.5781 61.1094 17.5781 68.3516Q17.5781 75.3125 22.7109 80.1641Q26.1563 83.3984 33.9609 86.9844L43.3125 91.2734Q54.2813 96.3359 59.2734 101.539Q65.5313 108.078 65.5313 117.781Q65.5313 132.266 54.4219 140.281Q44.5078 147.453 29.5313 147.453Q21.8672 147.453 11.8828 145.203Q9.07031 144.57 6.75 143.656Q6.04687 143.375 6.04688 142.953L6.04688 121.227Q6.04688 120.523 6.75 120.523L12.6563 120.523Q13.3594 120.734 13.3594 121.086L16.2422 137.328Q16.3125 137.539 16.5234 137.68L16.875 138.102Q21.9375 140.633 30.9375 140.633Q39.7969 140.633 45.7734 136.484Q52.5937 131.773 52.5938 123.266Q52.5938 111.453 36.8438 104.07L27.3516 99.6406Q16.9453 94.7891 11.8828 89.7266Q5.20313 83.0469 5.20313 73.9766Q5.20313 64.9063 10.7578 57.875Q16.1719 51.0547 24.9609 48.1719Q30.5859 46.3438 36.8438 46.3438Q45.2109 46.3438 54 48.3828Q56.3906 48.9453 59.2031 49.7891Q59.9062 49.9297 59.9063 50.4922L59.9063 72.2891Q59.9062 72.6406 59.7305 72.8164Q59.5547 72.9922 59.2031 72.9922L53.5781 72.9922ZM343.406 49.8945Q341.227 47.75 337.852 47.75Q334.477 47.75 332.262 49.8945Q330.047 52.0391 330.047 55.4141Q330.047 58.7891 332.262 60.9336Q334.477 63.0781 337.852 63.0781Q341.227 63.0781 343.406 60.9336Q345.586 58.7891 345.586 55.4141Q345.586 52.0391 343.406 49.8945ZM212.977 49.2266Q212.977 48.5234 213.68 48.5234L251.438 48.5234Q252.141 48.5234 252.141 49.2266L252.141 52.9531Q252.141 53.3047 251.965 53.4805Q251.789 53.6563 251.438 53.6563L239.906 54.8516Q239.203 54.8516 239.203 55.5547L239.203 90.4297Q239.203 90.8516 239.414 90.8516L285.68 90.8516Q285.82 90.7109 285.82 90.4297L285.82 55.5547Q285.82 54.8516 285.117 54.8516L273.586 53.6563Q272.883 53.6563 272.883 52.9531L272.883 49.2266Q272.883 48.5234 273.586 48.5234L311.344 48.5234Q312.047 48.5234 312.047 49.2266L312.047 52.9531Q312.047 53.3047 311.871 53.4805Q311.695 53.6563 311.344 53.6563L299.039 54.8516Q298.336 54.8516 298.336 55.5547L298.336 138.383Q298.336 139.086 299.039 139.086L311.344 140.211Q312.047 140.211 312.047 140.984L312.047 144.711Q312.047 145.414 311.344 145.414L273.586 145.414Q272.883 145.414 272.883 144.711L272.883 140.984Q272.883 140.211 273.586 140.211L285.117 139.086Q285.82 139.086 285.82 138.383L285.82 98.1641Q285.82 97.4609 285.117 97.4609L239.906 97.4609Q239.203 97.4609 239.203 98.1641L239.203 138.383Q239.203 139.086 239.906 139.086L251.438 140.211Q252.141 140.211 252.141 140.984L252.141 144.711Q252.141 145.414 251.438 145.414L213.68 145.414Q212.977 145.414 212.977 144.711L212.977 140.984Q212.977 140.211 213.68 140.211L225.914 139.086Q226.617 139.086 226.617 138.383L226.617 55.5547Q226.617 54.8516 225.914 54.8516L213.68 53.6563Q212.977 53.6563 212.977 52.9531L212.977 49.2266ZM109.406 139.086Q100.336 147.453 89.7188 147.453Q78.6797 147.453 74.8125 138.383Q73.5469 135.43 73.5469 132.055Q73.5469 120.172 85.6406 114.617Q89.2969 112.93 93.0938 112.156Q101.531 110.398 108.422 109.836L108.422 98.7266Q108.422 87.5469 97.4531 87.5469Q91.1953 87.5469 86.5547 89.7969Q86.1328 90.1484 85.8516 90.9922L83.8125 101.609Q83.8125 102.242 83.1094 102.242L78.6094 102.242Q77.9063 102.242 77.9063 101.609L77.9063 85.6484Q77.9063 85.2266 78.6094 84.9453Q90 80.8672 100.195 80.8672Q114.609 80.8672 118.898 89.5156Q120.516 92.75 120.516 97.7422L120.516 136.625Q120.516 137.188 121.078 137.469L130.148 140.07Q130.852 140.492 130.922 140.773L130.922 143.234Q130.641 144.008 130.289 144.008L111.305 146.539Q110.602 146.539 110.602 145.836L109.406 139.086ZM321.258 144.711Q321.258 145.414 322.031 145.414L354.516 145.414Q355.289 145.414 355.289 144.711L355.289 141.125Q355.289 140.352 354.516 140.352L345.164 139.367Q344.461 139.367 344.461 138.664L344.461 82.2031Q344.461 81.5 343.758 81.5L339.68 81.5Q339.117 81.5703 338.836 81.6406L321.539 84.5234Q320.977 84.5234 320.977 85.2266L320.977 88.5313Q320.977 89.2344 321.68 89.2344L332.086 90.4297Q332.789 90.4297 332.789 91.1328L332.789 138.664Q332.789 139.367 332.086 139.367L322.031 140.352Q321.258 140.352 321.258 141.125L321.258 144.711ZM165.023 83.6094Q165.023 82.9063 164.25 82.9063L134.297 82.9063Q133.594 82.9063 133.594 83.6094L133.594 87.2656Q133.594 87.5469 133.734 87.6875Q133.875 87.8281 134.156 87.8281L142.523 88.8125Q142.805 88.8125 143.086 89.2344L166.57 144.852Q166.852 146.047 166.57 146.68Q162.984 154.977 160.523 159.055Q156.586 165.664 153.211 168.195Q148.922 171.359 142.102 171.359Q141.68 171.359 141.398 171.641L139.641 174.523Q139.289 175.016 139.781 175.508L146.602 182.258Q147.164 182.539 147.586 182.539Q157.852 182.539 171.773 149.844L197.578 89.0938Q197.789 88.7422 198.141 88.6719L206.016 87.8281Q206.439 87.8281 206.631 87.6174Q206.789 87.4432 206.789 87.125L206.789 83.6094Q206.789 82.9063 206.016 82.9063L182.883 82.9063Q182.109 82.9063 182.109 83.6094L182.109 87.2656Q182.109 87.5139 182.233 87.6526Q182.389 87.8281 182.742 87.8281L190.195 88.6719Q190.658 88.6719 190.81 88.8891Q190.981 89.1343 190.758 89.6563L173.32 130.719L156.375 89.6563Q156.151 89.1343 156.323 88.8891Q156.475 88.6719 156.938 88.6719L164.391 87.8281Q165.023 87.8281 165.023 87.2656L165.023 83.6094ZM108.422 115.461Q101.039 115.883 97.3125 117.078Q96.3281 117.359 93.8672 118.203Q86.4141 120.734 86.4141 129.313Q86.4141 138.523 95.625 138.523Q98.2969 138.523 102.094 137.188Q103.992 136.484 107.719 134.586Q108.422 134.094 108.422 133.742L108.422 115.461Z" />
    </g>
    <g id="hands" transform="translate(400 34.94359)">
      <path d="M0 0L137.999 0L137.999 137.962L0 137.962L0 0Z" transform="translate(6.103516E-05 0)" id="Background" fill="none" stroke="none" />
      <path d="M108.565 108.115L86.9505 123.361L73.9587 132.489C71.5704 134.161 68.2801 133.585 66.6013 131.201L61.911 124.58C61.0869 123.379 59.7912 122.584 58.347 122.394C46.2983 120.76 38.1578 109.194 38.1578 109.194L1.6 57.2974C-0.941947 53.8376 -0.40198 49.0042 2.84203 46.1917C4.55245 44.8181 6.75442 44.2129 8.92692 44.5182C11.0994 44.8223 13.0488 46.0107 14.3161 47.8011L12.0162 44.536L4.95769 34.5103L2.38206 30.8779C0.390603 28.0444 0.466387 24.2478 2.56836 21.4964C3.06939 20.8575 3.65777 20.2923 4.31563 19.8176C6.03236 18.6061 8.1596 18.1271 10.23 18.485C12.3004 18.8429 14.1434 20.0091 15.3528 21.7259L9.28269 13.0801C7.59753 10.7655 7.29123 7.72251 8.48168 5.11846C9.67109 2.51336 12.173 0.753467 15.0255 0.511376C17.879 0.270339 20.6399 1.585 22.2514 3.95222L28.3447 12.598C26.6595 10.2824 26.3532 7.23938 27.5437 4.63533C28.7331 2.03128 31.234 0.270339 34.0875 0.0282482C36.9399 -0.21279 39.7019 1.10187 41.3123 3.46909L50.9243 17.1272L70.2389 44.5381C72.1451 47.3664 74.4892 49.8736 77.1827 51.9651C78.5616 52.9892 80.352 53.2808 81.9835 52.7461C83.616 52.2103 84.8865 50.9167 85.3917 49.2747L85.3917 49.2515C85.2538 44.9286 84.4717 41.2047 84.3802 37.8238C84.1297 28.2813 83.0718 18.5092 87.3947 15.4515C91.7176 12.3928 97.1205 17.9345 97.8109 25.3846C98.8888 36.8818 104.04 46.6075 107.35 60.4498C109.466 69.4177 107.971 80.9138 106.661 87.9271C105.877 92.1257 106.822 96.4623 109.282 99.9526L109.834 100.758C110.649 101.899 110.973 103.32 110.734 104.702C110.496 106.084 109.715 107.313 108.565 108.115L108.565 108.115Z" transform="translate(2.322937 2.235825)" id="Shape" fill="#E3E7F2" stroke="none" />
      <path d="M50.8621 53.7649L50.8621 53.7881C50.3569 55.429 49.0865 56.7237 47.455 57.2584C45.8225 57.7931 44.032 57.5026 42.6532 56.4774C39.9597 54.3859 37.6156 51.8798 35.7094 49.0505L16.3948 21.6427L6.78379 7.98459C5.24599 5.77525 2.68931 4.50164 0 4.60374C0.58628 3.34487 1.48938 2.25967 2.62194 1.45446C4.34184 0.236641 6.4775 -0.244382 8.55316 0.117701C10.6299 0.480837 12.4761 1.65655 13.6813 3.38592L23.2933 17.044L42.6079 44.4518C44.5141 47.2811 46.8571 49.7873 49.5517 51.8787C49.9369 52.164 50.3632 52.3882 50.8169 52.5461C50.839 52.9366 50.839 53.3502 50.8621 53.7649L50.8621 53.7649Z" transform="translate(29.95184 2.312668)" id="Shape" fill="#A4C2F7" stroke="none" />
      <path d="M35.8936 93.5142L14.2791 108.759L1.28834 117.887C0.888367 118.163 0.455762 118.387 0 118.554L7.38165 113.357L28.9951 98.1129C30.1445 97.3097 30.9255 96.0793 31.1634 94.6973C31.4002 93.3153 31.0749 91.8953 30.2602 90.7544L29.7087 89.9502C27.2489 86.4588 26.3036 82.1223 27.0868 77.9246C28.3972 70.9114 29.8919 59.4142 27.7772 50.4463C24.4659 36.604 19.3146 26.8783 18.2347 15.3811C17.7747 10.3456 15.1759 6.20692 12.1866 4.98805C12.5161 3.35341 13.4118 1.88719 14.7159 0.849358C19.0388 -2.18625 24.4427 3.33236 25.1321 10.7824C26.2131 22.2796 31.3633 32.0053 34.6747 45.8476C36.7904 54.8155 35.2957 66.3127 33.9853 73.3249C33.2011 77.5236 34.1463 81.8602 36.6062 85.3515L37.1577 86.1557C37.9735 87.2967 38.2987 88.7166 38.0608 90.0986C37.8229 91.4806 37.043 92.71 35.8936 93.5142L35.8936 93.5142Z" transform="translate(74.99646 16.82852)" id="Shape" fill="#A4C2F7" stroke="none" />
      <path d="M38.1578 64.7513C38.1578 64.7513 46.2983 76.3169 58.347 77.9515C59.7912 78.1399 61.0869 78.9346 61.911 80.1366L66.6013 86.7583C67.9749 88.7066 70.4842 89.4897 72.722 88.6687L72.6735 88.7035C72.7062 88.7035 72.7335 88.6666 72.7662 88.655C73.1882 88.5056 73.5893 88.3003 73.9587 88.0456L74.4187 87.7288C74.0756 87.4456 73.7703 87.1194 73.5114 86.7583L68.8201 80.1366C67.997 78.9346 66.7013 78.1399 65.2561 77.9515C53.2074 76.3169 45.0679 64.7513 45.0679 64.7513L8.49853 12.8544C5.95552 9.39466 6.49654 4.56127 9.74055 1.74881C10.2026 1.38147 10.7037 1.0657 11.2352 0.805711C10.5868 0.483626 9.89844 0.252061 9.18796 0.11628C6.93652 -0.272117 4.62719 0.322583 2.84203 1.74881C-0.40198 4.56127 -0.941947 9.39466 1.6 12.8544L38.1578 64.7513Z" transform="translate(2.322937 46.67874)" id="Shape" fill="#EEEEEE" stroke="none" />
      <path d="M10.9167 16.1495L8.34418 12.5171C6.35062 9.68461 6.42535 5.88695 8.52838 3.13554C9.0294 2.49663 9.61779 1.9314 10.2756 1.45669C10.6261 1.21776 10.9966 1.00935 11.3819 0.831468C10.7198 0.496752 10.0146 0.255714 9.28728 0.116775C7.21793 -0.243203 5.09175 0.236768 3.37712 1.45038C2.71926 1.92509 2.13088 2.49031 1.62986 3.12817C-0.473173 5.87958 -0.547906 9.67829 1.44566 12.5097L4.01918 16.1432L11.0777 26.1678L11.3198 26.5088C12.5723 26.0994 13.9017 22.8943 15.1711 23.1101" transform="translate(3.261414 20.59671)" id="Shape" fill="#EEEEEE" stroke="none" />
      <path d="M36.5535 54.5409L19.3409 30.1024L0 2.64826L3.75977 0L23.0996 27.4562L40.3133 51.8916L36.5535 54.5409Z" transform="translate(2.042053 58.20695)" id="Shape" fill="#EEEEEE" stroke="none" />
      <g id="Group" transform="translate(0 0.01893616)">
        <path d="M2.3535 4.60713C2.50928 4.60608 2.66506 4.58292 2.81348 4.53872C2.95873 4.51766 3.09977 4.47556 3.2324 4.41241C3.37134 4.34399 3.50501 4.26715 3.63448 4.1819C4.12603 3.82297 4.46495 3.29353 4.58389 2.69672C4.6281 2.39674 4.61442 2.0915 4.54284 1.79783C4.4239 1.19682 4.06393 0.671587 3.54606 0.345291C3.02925 0.017943 2.39982 -0.0820508 1.80722 0.0684661C1.5125 0.129515 1.23252 0.25056 0.98622 0.422128C0.221004 0.954727 -0.147394 1.89677 0.0546985 2.80724C0.255739 3.71771 0.987273 4.41557 1.90616 4.57555L2.3535 4.60713Z" transform="translate(27.57526 94.06049)" id="Shape" fill="#428DFF" stroke="none" />
        <path d="M3.71666 46.6136C-0.493608 50.1755 -1.2283 56.3867 2.0336 60.8328L22.7071 90.1678C23.4386 91.2067 24.8733 91.4551 25.9111 90.7236C26.9489 89.992 27.1984 88.5574 26.4668 87.5195L5.8039 58.1887C3.9798 55.7141 4.3282 52.2596 6.61122 50.2008C7.82588 49.224 9.39105 48.7935 10.9352 49.0114C12.4782 49.2293 13.8634 50.0755 14.7602 51.3502L30.2445 73.332C30.7129 74.0151 31.5128 74.393 32.3391 74.3214C33.1643 74.2498 33.8864 73.7393 34.2306 72.9857C34.5748 72.2321 34.4874 71.3521 34.0011 70.6816L6.59333 31.7556C5.16499 29.7452 5.22078 27.0369 6.73121 25.0865C7.07751 24.635 7.48906 24.2371 7.95429 23.9077C10.4983 22.1236 14.0044 22.7298 15.8022 25.2644L41.6954 62.0222C42.4269 63.06 43.8626 63.3084 44.9004 62.5758C45.9383 61.8443 46.1867 60.4086 45.4541 59.3708L13.4729 13.9672C11.6972 11.419 12.3056 7.91707 14.836 6.11718C16.057 5.25302 17.5716 4.91094 19.0441 5.16777C20.5177 5.42354 21.8282 6.25612 22.686 7.48026L54.6683 52.8817C54.8714 53.1606 55.1356 53.3901 55.4408 53.5511C55.5335 53.5932 55.6282 53.6301 55.7261 53.6616C55.9377 53.7469 56.1608 53.7995 56.3882 53.8174C56.4429 53.8174 56.4934 53.8564 56.5492 53.8564C56.6576 53.8469 56.765 53.8311 56.8713 53.8079C56.9481 53.8006 57.025 53.7879 57.1007 53.7711C57.8397 53.5985 58.4428 53.0669 58.708 52.3554C58.9733 51.6439 58.8638 50.8471 58.4186 50.2324L32.537 13.4778C30.7455 10.9337 31.356 7.41815 33.9001 5.62774C36.4441 3.83627 39.9586 4.44676 41.7501 6.99081L70.6768 48.0536L70.6768 48.0736C72.7293 51.1049 75.2512 53.7911 78.1468 56.032C79.4646 56.9888 81.0509 57.5056 82.6792 57.5077C83.5139 57.5067 84.3422 57.3688 85.1327 57.0983L85.1327 57.1583C84.5559 59.0824 83.7896 60.9443 82.8465 62.7179C80.5246 67.064 79.9067 72.1194 81.1151 76.896C81.2877 77.7212 81.8971 78.3864 82.7044 78.6285C83.5118 78.8706 84.3864 78.6527 84.9854 78.0591C85.5843 77.4654 85.8095 76.5928 85.5737 75.7834C84.6443 72.1152 85.1159 68.2323 86.8958 64.8936C88.0988 62.6495 89.0356 60.2717 89.6851 57.8098C90.1966 53.509 90.1124 49.1587 89.4346 44.8822C89.223 43.1328 89.023 41.4771 88.9746 39.9709C88.9398 38.6783 88.8893 37.3816 88.8441 36.0943C88.5883 29.2347 88.2988 21.4562 91.0208 19.5385C91.6765 19.0364 92.5649 18.9648 93.2933 19.3543C96.0752 21.2784 97.7614 24.4245 97.8225 27.8074C98.7214 34.7186 100.418 41.5013 102.881 48.0209C104.457 52.7396 106.082 57.614 107.409 63.1968C109.479 71.9458 107.868 83.564 106.719 89.711C105.826 94.5191 106.903 99.4841 109.708 103.491L110.265 104.282C111.214 105.631 110.891 107.495 109.543 108.446L74.9533 132.819C73.6008 133.764 71.7388 133.441 70.7841 132.095L66.1234 125.45C64.9161 123.734 63.0509 122.596 60.9731 122.309C50.118 120.851 42.4543 110.214 42.348 110.076L37.0578 102.548C36.3262 101.51 34.8916 101.261 33.8527 101.992C32.8149 102.724 32.5665 104.159 33.298 105.197L38.5861 112.716C38.9429 113.222 47.4624 125.132 60.3479 126.859C61.1573 126.974 61.8836 127.419 62.3531 128.09L67.0454 134.739C68.2032 136.386 69.9694 137.506 71.9525 137.851C73.9366 138.196 75.9764 137.739 77.6227 136.579L112.21 112.205C113.857 111.048 114.976 109.282 115.321 107.298C115.667 105.314 115.209 103.274 114.049 101.628L113.493 100.838C111.376 97.8589 110.567 94.1465 111.251 90.5573C112.744 82.6104 114.066 71.2279 111.902 62.1295C110.522 56.3488 108.871 51.3733 107.266 46.561C104.914 40.373 103.288 33.9334 102.423 27.3706C101.899 21.8173 99.0087 16.9155 95.231 15.1724C93.0154 14.0872 90.3798 14.3177 88.3862 15.7724C83.6265 19.1269 83.9317 27.4485 84.2612 36.2595C84.3075 37.5268 84.358 38.8078 84.3896 40.0835C84.4338 41.8076 84.6454 43.5623 84.8706 45.4253C85.0885 47.2483 85.3117 49.104 85.4011 51.0534C85.1064 51.846 84.4706 52.4638 83.6696 52.7343C82.7223 53.0659 81.6729 52.9069 80.8646 52.3112C78.3826 50.3692 76.2196 48.0504 74.4544 45.439L74.4428 45.4137L45.5078 4.34255C43.3395 1.2638 39.6566 -0.376104 35.9189 0.0733418C32.1812 0.52384 28.992 2.99 27.6162 6.494L26.4437 4.832C23.1891 0.212281 16.8053 -0.89502 12.1846 2.35952C7.56484 5.61511 6.4586 11.9989 9.71313 16.6186L10.8878 18.2859C7.12698 18.4017 3.73245 20.5731 2.0515 23.9403C0.370549 27.3075 0.673689 31.3251 2.84092 34.4018L9.85102 44.3738C7.61642 44.4317 5.46182 45.2179 3.71666 46.6136L3.71666 46.6136Z" transform="translate(0 0.003490701)" id="Shape" fill="#428DFF" stroke="none" />
        <path d="M11.4414 17.5768C12.2993 17.5768 13.0866 17.0979 13.4813 16.3359C13.876 15.5738 13.8139 14.6549 13.3192 13.9529L4.17977 0.975754C3.44823 -0.0631294 2.01359 -0.311535 0.975754 0.419999C-0.0631294 1.15153 -0.311535 2.58618 0.419999 3.62401L9.56049 16.6116C9.9931 17.219 10.6941 17.5789 11.4414 17.5768L11.4414 17.5768Z" transform="translate(34.63897 85.71049)" id="Shape" fill="#428DFF" stroke="none" />
        <path d="M7.12706 7.38097C7.93649 7.52096 8.7596 7.21887 9.28588 6.58733C9.81111 5.95684 9.96057 5.09269 9.67743 4.32221C9.39429 3.55068 8.72065 2.98966 7.91123 2.84967C6.47974 2.6802 5.1535 2.01077 4.16725 0.959258C3.42729 -0.072257 1.99054 -0.309085 0.959024 0.43087C-0.0724914 1.17188 -0.309319 2.60863 0.431688 3.64014C2.10316 5.69686 4.49881 7.03572 7.12706 7.38097L7.12706 7.38097Z" transform="translate(49.85898 107.3225)" id="Shape" fill="#428DFF" stroke="none" />
        <path d="M3.69725 5.69995L5.86133 4.17794C6.53287 3.70428 6.89916 2.90854 6.82443 2.08964C6.7497 1.2718 6.24446 0.556052 5.49819 0.211862C4.75192 -0.132328 3.87934 -0.0533849 3.20781 0.421323L1.04373 1.94334C0.33956 2.40226 -0.0583106 3.21063 0.00694859 4.04847C0.0722078 4.88737 0.591123 5.62417 1.35845 5.96836C2.12682 6.31255 3.02045 6.20939 3.69093 5.69995L3.69725 5.69995Z" transform="translate(95.93251 102.4271)" id="Shape" fill="#428DFF" stroke="none" />
        <path d="M3.62594 14.8421L18.7597 4.17959C19.7986 3.44805 20.046 2.0134 19.3144 0.974521C18.5819 -0.0633103 17.1472 -0.311716 16.1094 0.420871L0.974521 11.0823C-0.0633103 11.8149 -0.311716 13.2496 0.420871 14.2884C1.1524 15.3263 2.58811 15.5747 3.62594 14.8421L3.62594 14.8421Z" transform="translate(72.22416 110.0408)" id="Shape" fill="#428DFF" stroke="none" />
        <path d="M32.1907 34.4905C33.4611 34.4905 34.4905 33.4611 34.4905 32.1907C34.4905 30.9213 33.4611 29.8919 32.1907 29.8919C16.959 29.875 4.61445 17.5316 4.59867 2.29881C4.59867 1.02941 3.56925 0 2.29881 0C1.02941 0 0 1.02941 0 2.29881C0.0189463 20.0703 14.4202 34.4716 32.1907 34.4905L32.1907 34.4905Z" transform="translate(0.03792517 103.4715)" id="Shape" fill="#428DFF" stroke="none" />
        <path d="M4.59867 2.29986C4.59867 1.02941 3.56926 0 2.29881 0C1.02941 0 0 1.02941 0 2.29986C0.0157885 16.2622 11.3309 27.5762 25.2932 27.593C26.5626 27.593 27.592 26.5636 27.592 25.2932C27.592 24.0238 26.5626 22.9944 25.2932 22.9944C13.8686 22.9817 4.6113 13.7234 4.59867 2.29986L4.59867 2.29986Z" transform="translate(9.235267 101.1717)" id="Shape" fill="#428DFF" stroke="none" />
        <path d="M2.29881 0C1.02941 0 0 1.02941 0 2.29881C0 3.56925 1.02941 4.59866 2.29881 4.59866C17.5305 4.61551 29.875 16.959 29.8908 32.1907C29.8908 33.4611 30.9213 34.4905 32.1907 34.4905C33.4611 34.4905 34.4905 33.4611 34.4905 32.1907C34.4705 14.4202 20.0693 0.0189462 2.29881 0L2.29881 0Z" transform="translate(103.5095 0)" id="Shape" fill="#428DFF" stroke="none" />
        <path d="M2.29986 4.59866C13.7234 4.6113 22.9807 13.8686 22.9933 25.2932C22.9933 26.5626 24.0227 27.592 25.2932 27.592C26.5626 27.592 27.592 26.5626 27.592 25.2932C27.5762 11.3309 16.2611 0.0168411 2.29986 0C1.02941 0 0 1.02941 0 2.29881C0 3.56925 1.02941 4.59866 2.29986 4.59866L2.29986 4.59866Z" transform="translate(101.2097 9.197326)" id="Shape" fill="#428DFF" stroke="none" />
      </g>
    </g>
  </g>
</svg>