<?xml version="1.0" encoding="utf-8"?>
<svg width="40px" height="40px" viewBox="0 0 40 40" version="1.1" xmlns:xlink="http://www.w3.org/1999/xlink" xmlns="http://www.w3.org/2000/svg">
  <desc>Created with Lunacy</desc>
  <g id="icons8_news">
    <path d="M0 0L38.296 0L38.296 38.296L0 38.296L0 0Z" transform="translate(0.8140411 1.703888)" id="Background" fill="none" stroke="none" />
    <path d="M0.621888 0.00493789C0.252008 0.0938273 -0.0090829 0.446092 0.000241977 0.84774L0.000241977 30.9252C0.000241977 34.5038 1.75639 36.522 3.48146 37.4306C5.20653 38.3393 6.91294 38.2997 6.91294 38.2997L31.3809 38.2997L31.3809 38.2207C31.7632 38.2668 32.1766 38.2997 32.1766 38.2997C32.1766 38.2997 33.7059 38.3096 35.2351 37.3779C36.7271 36.4693 38.1973 34.5466 38.2688 31.2149C38.2781 31.1985 38.2874 31.1787 38.2936 31.1623L38.2936 31.1096C38.2967 31.0668 38.2967 31.0207 38.2936 30.9779L38.2936 9.80251C38.2936 9.80251 38.3061 8.81485 37.8212 7.80086C37.3363 6.78686 36.208 5.69385 34.4394 5.69385L34.4394 5.66751L26.9051 5.66751L26.9051 7.35312L31.3312 7.35312C31.2348 7.49797 31.154 7.62966 31.0825 7.77452C30.5977 8.77864 30.5852 9.77617 30.5852 9.77617L30.5852 30.2141C30.5821 30.517 30.7313 30.8001 30.98 30.9549C31.2286 31.1063 31.5332 31.1063 31.7819 30.9549C32.0305 30.8001 32.1797 30.517 32.1766 30.2141L32.1766 9.77617C32.1766 9.75313 32.2077 9.14407 32.4999 8.53831C32.7983 7.92267 33.2179 7.37945 34.4394 7.37945C35.6579 7.37945 36.0775 7.93583 36.379 8.56464C36.6742 9.18358 36.7271 9.8058 36.7271 9.82885L36.7022 9.82885L36.7022 30.9779C36.7022 33.9771 35.5708 35.2413 34.4394 35.9294C33.308 36.6174 32.1766 36.6141 32.1766 36.6141C32.1766 36.6141 30.8308 36.5944 29.4911 35.8767C28.1515 35.159 26.8553 33.8981 26.8553 30.9252L26.8553 0.84774C26.8553 0.38354 26.4979 0.00493789 26.0596 0.00493789L0.795949 0.00493789C0.736892 -0.0016461 0.680944 -0.0016461 0.621888 0.00493789ZM25.264 1.69055L1.59171 1.69055L1.59171 30.9252C1.59171 33.5755 2.56769 34.8825 3.7053 35.6397C3.86693 35.7483 4.03477 35.8405 4.20262 35.9294C4.5352 36.1039 4.88332 36.2257 5.19725 36.3244C5.51118 36.4232 5.79092 36.4923 6.04269 36.5351C6.54622 36.6174 6.88813 36.6142 6.88813 36.6142L27.676 36.6142C26.3736 35.5113 25.264 33.6973 25.264 30.9252L25.264 1.69055ZM4.77451 6.93163C4.33625 6.99747 4.02854 7.42875 4.0907 7.89295C4.15287 8.35715 4.56004 8.68308 4.9983 8.61723L20.6886 8.61723C20.9746 8.62053 21.2419 8.4625 21.388 8.19912C21.531 7.93575 21.531 7.61311 21.388 7.34974C21.2419 7.08636 20.9746 6.92834 20.6886 6.93163L4.77451 6.93163ZM4.09064 11.2643C4.02848 10.8001 4.33619 10.3689 4.77445 10.303L20.6886 10.303C20.9745 10.2997 21.2419 10.4578 21.3879 10.7211C21.5309 10.9845 21.5309 11.3071 21.3879 11.5705C21.2419 11.8339 20.9745 11.9919 20.6886 11.9886L4.99824 11.9886C4.55998 12.0545 4.15281 11.7285 4.09064 11.2643ZM5.14748 17.0454C4.70922 17.1112 4.40151 17.5425 4.46367 18.0067C4.52584 18.4709 4.93302 18.7968 5.37127 18.731L10.7672 18.731C11.0531 18.7343 11.3204 18.5762 11.4665 18.3129C11.6095 18.0495 11.6095 17.7269 11.4665 17.4635C11.3204 17.2001 11.0531 17.0421 10.7672 17.0454L5.14748 17.0454ZM13.6392 18.0068C13.577 17.5426 13.8847 17.1113 14.323 17.0455L20.6886 17.0455C20.9746 17.0422 21.2419 17.2002 21.388 17.4636C21.531 17.727 21.531 18.0496 21.388 18.313C21.2419 18.5764 20.9746 18.7344 20.6886 18.7311L14.5468 18.7311C14.1085 18.7969 13.7013 18.471 13.6392 18.0068ZM13.6392 21.3779C13.577 20.9137 13.8847 20.4824 14.323 20.4166L20.6887 20.4166C20.9746 20.4133 21.2419 20.5713 21.388 20.8347C21.531 21.098 21.531 21.4207 21.388 21.684C21.2419 21.9474 20.9746 22.1054 20.6887 22.1022L14.5468 22.1022C14.1085 22.168 13.7014 21.8421 13.6392 21.3779ZM5.14748 20.4166C4.70922 20.4824 4.40151 20.9137 4.46367 21.3779C4.52584 21.8421 4.93302 22.168 5.37128 22.1022L10.7672 22.1022C11.0531 22.1055 11.3204 21.9475 11.4665 21.6841C11.6095 21.4207 11.6095 21.0981 11.4665 20.8347C11.3204 20.5713 11.0531 20.4133 10.7672 20.4166L5.14748 20.4166ZM14.3229 23.6033C13.8847 23.6691 13.577 24.1004 13.6391 24.5646C13.7013 25.0288 14.1085 25.3547 14.5467 25.2889L20.6886 25.2889C20.9746 25.2922 21.2419 25.1342 21.3879 24.8708C21.5309 24.6074 21.5309 24.2848 21.3879 24.0214C21.2419 23.758 20.9746 23.6 20.6886 23.6033L14.5467 23.6033C14.497 23.5967 14.4473 23.5967 14.3975 23.6033L14.3229 23.6033ZM4.46367 24.7492C4.40151 24.285 4.70922 23.8537 5.14748 23.7879L10.7672 23.7879C11.0531 23.7846 11.3204 23.9426 11.4665 24.206C11.6095 24.4693 11.6095 24.792 11.4665 25.0554C11.3204 25.3187 11.0531 25.4768 10.7672 25.4735L5.37127 25.4735C4.93302 25.5393 4.52584 25.2134 4.46367 24.7492ZM14.323 26.9747C13.8847 27.0405 13.577 27.4718 13.6392 27.936C13.7013 28.4002 14.1085 28.7261 14.5468 28.6603L20.6886 28.6603C20.9746 28.6636 21.2419 28.5056 21.388 28.2422C21.531 27.9788 21.531 27.6562 21.388 27.3928C21.2419 27.1294 20.9746 26.9714 20.6886 26.9747L14.5468 26.9747C14.4971 26.9681 14.4473 26.9681 14.3976 26.9747L14.323 26.9747ZM4.46372 28.1203C4.40155 27.6561 4.70927 27.2248 5.14753 27.159L10.7672 27.159C11.0532 27.1557 11.3205 27.3137 11.4666 27.5771C11.6095 27.8404 11.6095 28.1631 11.4666 28.4265C11.3205 28.6898 11.0532 28.8479 10.7672 28.8446L5.37132 28.8446C4.93306 28.9104 4.52588 28.5845 4.46372 28.1203ZM14.323 30.1351C13.8847 30.201 13.577 30.6322 13.6392 31.0964C13.7013 31.5606 14.1085 31.8866 14.5468 31.8207L20.6886 31.8207C20.9746 31.824 21.2419 31.666 21.388 31.4026C21.531 31.1392 21.531 30.8166 21.388 30.5532C21.2419 30.2899 20.9746 30.1318 20.6886 30.1351L14.323 30.1351ZM4.46367 31.4916C4.40151 31.0274 4.70922 30.5961 5.14748 30.5303L10.7672 30.5303C11.0531 30.527 11.3204 30.685 11.4665 30.9484C11.6095 31.2118 11.6095 31.5344 11.4665 31.7978C11.3204 32.0612 11.0531 32.2192 10.7672 32.2159L5.37127 32.2159C4.93302 32.2817 4.52584 31.9558 4.46367 31.4916Z" id="Shape" fill="#5A3782" fill-rule="evenodd" stroke="none" />
  </g>
</svg>