<?xml version="1.0" encoding="utf-8"?>
<svg width="45px" height="40px" viewBox="0 0 45 40" version="1.1" xmlns:xlink="http://www.w3.org/1999/xlink" xmlns="http://www.w3.org/2000/svg">
  <desc>Created with Lunacy</desc>
  <g id="icons8_contacts">
    <path d="M22.3489 0C17.0901 0.0988289 13.7623 1.87774 12.3304 4.62665C10.9687 7.24378 11.2533 10.5417 12.2253 13.9678C11.7043 14.4802 11.2752 15.2013 11.3846 16.2811L11.3846 16.3397C11.5729 17.4817 11.9845 18.287 12.5056 18.858C12.7552 19.1288 13.1098 19.1435 13.4163 19.2972C13.6878 20.5747 14.2965 21.7936 14.9927 22.7526C15.0277 22.8917 15.0978 23.0198 15.2029 23.1332C15.2029 23.1332 15.3167 23.254 15.343 23.2796C15.6933 23.7189 15.8684 24.3302 15.8684 25.0073C15.8684 25.7284 15.8553 26.3982 15.7633 27.1449C15.4262 27.8551 14.5855 28.4224 13.2412 28.9898C11.8356 29.5827 9.99658 30.1281 8.12687 30.8053C6.25717 31.4824 4.36119 32.295 2.8374 33.5871C1.31361 34.8792 0.223314 36.6691 0.0700593 39.0044L0 40L44.978 40L44.908 39.0044C44.7547 36.6691 43.6907 34.8829 42.1757 33.5871C40.6606 32.2914 38.7559 31.4824 36.8862 30.8053C35.0165 30.1281 33.1643 29.5864 31.7368 28.9898C30.3532 28.4114 29.4862 27.8221 29.1096 27.0864C29.022 26.2006 29.0045 25.5015 29.0045 24.7145C29.0045 24.213 29.2103 23.7592 29.565 23.3089C29.5738 23.298 29.5913 23.2906 29.6 23.2796C29.6044 23.2723 29.6701 23.2211 29.6701 23.2211C29.8102 23.1003 29.9065 22.9466 29.9503 22.7818C30.629 21.8082 31.1939 20.571 31.4566 19.3265C31.8069 19.1728 32.201 19.1545 32.4725 18.858C33.011 18.2687 33.3263 17.4305 33.4533 16.2811C33.554 15.2892 33.2125 14.5681 32.6826 14.0264C33.265 12.5256 33.9568 10.1245 33.7335 7.67204C33.6109 6.32504 33.1862 4.9817 32.2273 3.8653C31.3603 2.85505 29.9591 2.16325 28.1989 1.8448C27.0122 0.519766 24.8579 0 22.3839 0L22.3489 0ZM22.419 1.87408L22.3839 1.87408C17.6944 1.96925 15.4875 3.29429 14.3972 5.38799C13.3069 7.48902 13.4689 10.582 14.5023 13.9971L14.6774 14.6413L14.0469 15.022C14.0643 15.0118 14.0575 15.0192 14.0356 15.0432C13.9472 15.1401 13.6125 15.507 13.6265 16.0761C13.6287 16.0835 13.6276 16.0871 13.6265 16.0908C13.6254 16.0944 13.6243 16.0981 13.6265 16.1054L13.6265 16.1347C13.7798 16.9949 14.06 17.5 14.2571 17.716C14.3578 17.8294 14.4629 17.877 14.5023 17.8917L15.413 17.8917L15.5181 18.7116C15.7108 19.9121 16.4683 21.3104 17.1295 22.1083C17.1317 22.112 17.1306 22.1175 17.1295 22.123C17.1284 22.1285 17.1273 22.134 17.1295 22.1376C17.2871 22.2987 17.8432 22.8734 18.7759 23.5432C19.8531 24.3155 21.2542 25.0073 22.489 25.0073C23.7326 25.0073 25.1206 24.3485 26.1671 23.6018C26.7977 23.1515 27.2399 22.7745 27.5333 22.489C27.5946 22.4012 27.6428 22.306 27.7084 22.2255L27.7435 22.2255C28.3871 21.4568 29.1271 19.9268 29.3198 18.7116L29.4599 17.8917L30.4408 17.8917C30.4013 17.8917 30.4977 17.9209 30.686 17.716C30.8699 17.5146 31.1413 17.0168 31.2464 16.1347L31.2464 16.1054C31.2822 15.5427 31.0428 15.232 30.9591 15.1235C30.9405 15.0993 30.9296 15.0852 30.9312 15.0805L30.0554 14.6999L30.4057 13.9092C30.918 12.7086 31.6974 10.0695 31.4916 7.81845C31.3909 6.69473 31.0319 5.67716 30.4057 4.94876C29.7796 4.22035 28.9345 3.72255 27.3932 3.54319L26.8327 3.48463L26.5525 3.07467C26.0883 2.40849 24.6565 1.88141 22.419 1.87408ZM18.1103 25.5051C19.2926 26.2335 20.7726 26.8814 22.489 26.8814C24.1704 26.8814 25.611 26.2665 26.7626 25.5637C26.767 26.1347 26.7889 26.7204 26.8677 27.4378L26.8677 27.5549L26.9378 27.672C27.1348 28.104 27.4151 28.47 27.7435 28.8141C27.7303 28.8507 27.7172 28.8909 27.7084 28.9312C27.7084 28.9312 27.4413 29.5461 26.6575 30.2196C25.8737 30.8931 24.6565 31.5666 22.489 31.5666C20.3303 31.5666 19.0692 30.8638 18.2504 30.1611C17.4316 29.4583 17.1645 28.8141 17.1645 28.8141C17.4885 28.4627 17.7556 28.0857 17.9352 27.6428L18.0052 27.4671C18.1015 26.757 18.1103 26.1164 18.1103 25.5051ZM30.721 30.6881C30.2963 30.5124 29.889 30.3148 29.495 30.1025C29.2541 30.4905 28.8819 30.981 28.2689 31.508C27.148 32.4744 25.252 33.4407 22.489 33.4407C19.7173 33.4407 17.7819 32.4634 16.6391 31.4788C16.083 30.9993 15.6977 30.5088 15.4481 30.1318C15.0715 30.3367 14.6599 30.5161 14.2571 30.6881C12.6369 31.3726 10.7979 31.896 9.03765 32.5329C7.27741 33.1698 5.60474 33.8909 4.41373 34.9048C3.46356 35.7138 2.8987 36.7899 2.59219 38.1259L42.3859 38.1259C42.0793 36.7899 41.5101 35.7138 40.5643 34.9048C39.3777 33.8909 37.7357 33.1698 35.9754 32.5329C34.2152 31.896 32.3586 31.3689 30.721 30.6881Z" id="Shape" fill="#5A3782" fill-rule="evenodd" stroke="none" />
  </g>
</svg>